<svg xmlns="http://www.w3.org/2000/svg" viewBox="0 0 800 1000">
  <defs><linearGradient id="g" x1="0" y1="0" x2="0" y2="1"><stop offset="0" stop-color="#f5b942"/><stop offset="1" stop-color="#e8dcc5"/></linearGradient></defs>
  <rect width="800" height="1000" fill="url(#g)"/>
  <circle cx="400" cy="330" r="170" fill="#fff" opacity="0.5"/>
  <g transform="translate(0,120)">
  
  <ellipse cx="400" cy="560" rx="260" ry="26" fill="#000" opacity="0.08"/>
  <g stroke="#0f172a" stroke-width="14" fill="none" stroke-linecap="round" stroke-linejoin="round">
    <path d="M325 380 q75 -40 150 0"/>
    <path d="M165 370 l-60 -20"/>
    <path d="M635 370 l60 -20"/>
  </g>
  <g opacity="0.92"><path d="M175 360 h140 c0 60 -20 90 -70 90 s-70 -30 -70 -90z" fill="#1e293b"/><path d="M485 360 h140 c0 60 -20 90 -70 90 s-70 -30 -70 -90z" fill="#1e293b"/></g>
  <g stroke="#0f172a" stroke-width="12" fill="none"><path d="M175 360 h140 c0 60 -20 90 -70 90 s-70 -30 -70 -90z" fill="none"/><path d="M485 360 h140 c0 60 -20 90 -70 90 s-70 -30 -70 -90z" fill="none"/></g>
  <path d="M205 370 q30 -20 60 0" stroke="#fff" stroke-width="6" fill="none" opacity="0.5" stroke-linecap="round"/>
  <path d="M515 370 q30 -20 60 0" stroke="#fff" stroke-width="6" fill="none" opacity="0.5" stroke-linecap="round"/>
</g>
  <text x="400" y="900" text-anchor="middle" font-family="Georgia, serif" font-size="34" fill="#0f172a">Ovdje ide tvoja fotografija</text>
</svg>